<?xml version="1.0" encoding="utf-8"?>
<!-- Generator: Adobe Illustrator 24.0.2, SVG Export Plug-In . SVG Version: 6.00 Build 0)  -->
<svg version="1.1" id="Ebene_1" xmlns="http://www.w3.org/2000/svg" xmlns:xlink="http://www.w3.org/1999/xlink" x="0px" y="0px"
	 viewBox="0 0 64 64" style="enable-background:new 0 0 64 64;" xml:space="preserve">
<style type="text/css">
	.st0{fill:#000842;}
	.st1{fill:#FFFFFF;}
	.st2{fill:#F6AE2D;}
</style>
<g id="Ebene_1_1_">
	<g>
		<rect class="st0" width="64" height="64"/>
	</g>
</g>
<g id="walls.io">
	<path class="st1" d="M28.3,52.5c3.6,1.5,7.6,0.6,10.4-2.1L50,38.8c3.7-3.8,3.7-10,0-13.8L38.7,13.5c-3.8-3.8-9.8-3.8-13.6,0
		L13.8,25c-3.7,3.8-3.7,10,0,13.8l11.3,11.5C26,51.2,27.1,52,28.3,52.5z"/>
	<path d="M28.2,53.3c3.8,1.5,8.1,0.7,10.9-2.2L51,39.2c3.9-3.9,3.9-10.3,0-14.3L39.2,13c-4-3.9-10.3-3.9-14.3,0L13,24.9
		c-3.9,3.9-3.9,10.3,0,14.3L24.9,51C25.9,52,27,52.8,28.2,53.3z M36.6,48.5c-2.5,2.5-6.6,2.5-9.1,0L15.6,36.6
		c-2.5-2.5-2.5-6.6,0-9.1l11.9-11.9c2.5-2.5,6.6-2.5,9.1,0l11.9,11.9c2.5,2.5,2.5,6.6,0,9.1L36.6,48.5z"/>
	<path d="M30.6,32l8.6,8.6l0,0l6.6-6.6c1.1-1.1,1.1-2.8,0-3.9l-6.7-6.7L30.6,32z"/>
	<path class="st2" d="M28,29.5l8.6-8.6L34,18.2c-1.1-1.1-2.9-1.1-3.9,0l-6.6,6.6L28,29.5z"/>
	<path d="M34,45.9l2.7-2.7L20.8,27.5l-2.7,2.7c-1.1,1.1-1.1,2.8,0,3.9L30,46C31.1,47,32.9,47,34,45.9z"/>
</g>
</svg>
